<svg width="1774" height="606" viewBox="0 0 1774 606" fill="none" xmlns="http://www.w3.org/2000/svg">
<g clip-path="url(#clip0_123_106)">
<path fill-rule="evenodd" clip-rule="evenodd" d="M272.249 211.399C278.954 211.399 285.544 208.157 289.593 202.156C296.101 192.488 293.615 179.356 284.062 172.79L215.086 125.472C198.915 114.904 178.086 114.876 161.55 125.726L92.9384 172.79C83.3845 179.356 80.8995 192.488 87.4067 202.156C93.9141 211.822 106.956 214.329 116.505 207.735L184.731 160.953C187.018 159.459 190.01 159.431 191.878 160.671L260.494 207.735C264.094 210.216 268.198 211.399 272.249 211.399ZM272.249 324.127C278.954 324.127 285.544 320.885 289.593 314.881C296.101 305.216 293.615 292.083 284.062 285.517L215.086 238.2C198.915 227.631 178.086 227.602 161.55 238.453L92.9384 285.517C83.3845 292.083 80.8995 305.216 87.4067 314.881C93.9141 324.549 106.956 327.028 116.505 320.462L184.731 273.681C187.018 272.158 190.01 272.187 191.878 273.399L260.494 320.462C264.094 322.943 268.198 324.127 272.249 324.127ZM215.757 8.51807L355.385 104.392C368.928 113.692 377 129.164 377 145.791V460.159C377 476.814 368.928 492.286 355.385 501.586L215.757 597.433C207.488 603.154 197.995 606 188.5 606C179.006 606 169.484 603.154 161.187 597.404L21.5882 501.586C8.072 492.286 0 476.814 0 460.159V145.791C0 129.164 8.072 113.692 21.5882 104.392L161.214 8.51807C177.777 -2.83936 199.195 -2.83936 215.757 8.51807ZM188.5 473.438C209.32 473.438 226.2 456.481 226.2 435.562C226.2 414.644 209.32 397.688 188.5 397.688C167.68 397.688 150.8 414.644 150.8 435.562C150.8 456.481 167.68 473.438 188.5 473.438Z" fill="white"/>
</g>
<path d="M1737.23 529.72C1727.08 529.72 1718.55 526.456 1711.66 519.928C1704.77 513.219 1701.33 504.696 1701.33 494.36C1701.33 483.843 1704.77 475.411 1711.66 469.064C1718.55 462.717 1727.08 459.544 1737.23 459.544C1747.39 459.544 1755.91 462.717 1762.8 469.064C1769.69 475.411 1773.14 483.843 1773.14 494.36C1773.14 504.696 1769.69 513.219 1762.8 519.928C1755.91 526.456 1747.39 529.72 1737.23 529.72Z" fill="white"/>
<path d="M1507.6 527V336.6H1599.26C1617.03 336.6 1632.36 339.501 1645.23 345.304C1658.29 351.107 1668.35 359.448 1675.42 370.328C1682.49 381.027 1686.03 393.72 1686.03 408.408C1686.03 423.096 1682.49 435.789 1675.42 446.488C1668.35 457.005 1658.29 465.075 1645.23 470.696C1632.36 476.317 1617.03 479.128 1599.26 479.128H1543.23L1571.79 452.744V527H1507.6ZM1621.57 527L1574.78 457.64H1642.78L1690.11 527H1621.57ZM1571.79 459.816L1543.23 430.712H1595.18C1604.07 430.712 1610.6 428.717 1614.77 424.728C1619.12 420.739 1621.29 415.299 1621.29 408.408C1621.29 401.517 1619.12 396.077 1614.77 392.088C1610.6 388.099 1604.07 386.104 1595.18 386.104H1543.23L1571.79 357V459.816Z" fill="white"/>
<path d="M1394.22 407.32H1479.08V453.56H1394.22V407.32ZM1398.57 478.584H1493.77V527H1335.46V336.6H1490.23V385.016H1398.57V478.584Z" fill="white"/>
<path d="M1121.62 527V336.6H1215.46C1236.68 336.6 1255.36 340.499 1271.5 348.296C1287.64 355.912 1300.24 366.792 1309.3 380.936C1318.37 395.08 1322.9 411.944 1322.9 431.528C1322.9 451.293 1318.37 468.339 1309.3 482.664C1300.24 496.808 1287.64 507.779 1271.5 515.576C1255.36 523.192 1236.68 527 1215.46 527H1121.62ZM1185.82 476.952H1212.74C1221.81 476.952 1229.7 475.229 1236.41 471.784C1243.3 468.339 1248.65 463.261 1252.46 456.552C1256.26 449.661 1258.17 441.32 1258.17 431.528C1258.17 421.917 1256.26 413.757 1252.46 407.048C1248.65 400.339 1243.3 395.261 1236.41 391.816C1229.7 388.371 1221.81 386.648 1212.74 386.648H1185.82V476.952Z" fill="white"/>
<path d="M971.629 527V336.6H1035.82V477.224H1121.77V527H971.629Z" fill="white"/>
<path d="M887.416 527V336.6H951.608V527H887.416Z" fill="white"/>
<path d="M776.119 531.352C746.925 531.352 724.167 523.464 707.847 507.688C691.527 491.912 683.367 469.789 683.367 441.32V336.6H747.559V439.416C747.559 453.923 750.189 464.259 755.447 470.424C760.706 476.408 767.778 479.4 776.663 479.4C785.73 479.4 792.802 476.408 797.879 470.424C803.138 464.259 805.767 453.923 805.767 439.416V336.6H868.871V441.32C868.871 469.789 860.711 491.912 844.391 507.688C828.071 523.464 805.314 531.352 776.119 531.352Z" fill="white"/>
<path d="M485.504 527V336.6H587.232C613.525 336.6 632.928 341.315 645.44 350.744C657.952 359.992 664.208 371.869 664.208 386.376C664.208 395.987 661.488 404.6 656.048 412.216C650.789 419.651 643.083 425.544 632.928 429.896C622.773 434.248 610.261 436.424 595.392 436.424L600.832 421.736C615.701 421.736 628.485 423.821 639.184 427.992C650.064 432.163 658.405 438.237 664.208 446.216C670.192 454.013 673.184 463.443 673.184 474.504C673.184 491.005 666.293 503.88 652.512 513.128C638.912 522.376 618.965 527 592.672 527H485.504ZM548.608 482.12H587.232C594.304 482.12 599.563 480.851 603.008 478.312C606.635 475.773 608.448 472.056 608.448 467.16C608.448 462.264 606.635 458.547 603.008 456.008C599.563 453.469 594.304 452.2 587.232 452.2H544.256V409.768H578.528C585.781 409.768 591.04 408.589 594.304 406.232C597.749 403.693 599.472 400.157 599.472 395.624C599.472 390.909 597.749 387.373 594.304 385.016C591.04 382.659 585.781 381.48 578.528 381.48H548.608V482.12Z" fill="white"/>
<path d="M1539.96 271L1623.19 80.6001H1686.29L1769.53 271H1703.16L1641.69 111.064H1666.71L1605.24 271H1539.96ZM1589.46 237.816L1605.78 191.576H1693.37L1709.69 237.816H1589.46Z" fill="white"/>
<path d="M1368.84 271V80.6001H1460.5C1478.27 80.6001 1493.6 83.5014 1506.47 89.3041C1519.53 95.1068 1529.59 103.448 1536.66 114.328C1543.73 125.027 1547.27 137.72 1547.27 152.408C1547.27 167.096 1543.73 179.789 1536.66 190.488C1529.59 201.005 1519.53 209.075 1506.47 214.696C1493.6 220.317 1478.27 223.128 1460.5 223.128H1404.47L1433.03 196.744V271H1368.84ZM1482.81 271L1436.02 201.64H1504.02L1551.35 271H1482.81ZM1433.03 203.816L1404.47 174.712H1456.42C1465.31 174.712 1471.84 172.717 1476.01 168.728C1480.36 164.739 1482.53 159.299 1482.53 152.408C1482.53 145.517 1480.36 140.077 1476.01 136.088C1471.84 132.099 1465.31 130.104 1456.42 130.104H1404.47L1433.03 101V203.816Z" fill="white"/>
<path d="M1256.54 275.352C1227.35 275.352 1204.59 267.464 1188.27 251.688C1171.95 235.912 1163.79 213.789 1163.79 185.32V80.6001H1227.98V183.416C1227.98 197.923 1230.61 208.259 1235.87 214.424C1241.13 220.408 1248.2 223.4 1257.09 223.4C1266.15 223.4 1273.22 220.408 1278.3 214.424C1283.56 208.259 1286.19 197.923 1286.19 183.416V80.6001H1349.29V185.32C1349.29 213.789 1341.13 235.912 1324.81 251.688C1308.49 267.464 1285.74 275.352 1256.54 275.352Z" fill="white"/>
<path d="M1044.33 271V130.376H988.573V80.6001H1164.29V130.376H1108.53V271H1044.33Z" fill="white"/>
<path d="M876.791 271V80.6001H940.983V221.224H1026.94V271H876.791Z" fill="white"/>
<path d="M765.494 275.352C736.3 275.352 713.542 267.464 697.222 251.688C680.902 235.912 672.742 213.789 672.742 185.32V80.6001H736.934V183.416C736.934 197.923 739.564 208.259 744.822 214.424C750.081 220.408 757.153 223.4 766.038 223.4C775.105 223.4 782.177 220.408 787.254 214.424C792.513 208.259 795.142 197.923 795.142 183.416V80.6001H858.246V185.32C858.246 213.789 850.086 235.912 833.766 251.688C817.446 267.464 794.689 275.352 765.494 275.352Z" fill="white"/>
<path d="M583.968 275.352C568.736 275.352 554.592 272.995 541.536 268.28C528.662 263.384 517.419 256.493 507.808 247.608C498.379 238.723 491.035 228.205 485.776 216.056C480.518 203.907 477.888 190.488 477.888 175.8C477.888 161.112 480.518 147.693 485.776 135.544C491.035 123.395 498.379 112.877 507.808 103.992C517.419 95.1067 528.662 88.3067 541.536 83.592C554.592 78.696 568.736 76.248 583.968 76.248C602.646 76.248 619.147 79.512 633.472 86.0401C647.979 92.568 659.947 101.997 669.376 114.328L628.848 150.504C623.227 143.432 616.971 137.992 610.08 134.184C603.371 130.195 595.755 128.2 587.232 128.2C580.523 128.2 574.448 129.288 569.008 131.464C563.568 133.64 558.854 136.813 554.864 140.984C551.056 145.155 548.064 150.232 545.888 156.216C543.712 162.019 542.624 168.547 542.624 175.8C542.624 183.053 543.712 189.672 545.888 195.656C548.064 201.459 551.056 206.445 554.864 210.616C558.854 214.787 563.568 217.96 569.008 220.136C574.448 222.312 580.523 223.4 587.232 223.4C595.755 223.4 603.371 221.496 610.08 217.688C616.971 213.699 623.227 208.168 628.848 201.096L669.376 237.272C659.947 249.421 647.979 258.851 633.472 265.56C619.147 272.088 602.646 275.352 583.968 275.352Z" fill="white"/>
<defs>
<clipPath id="clip0_123_106">
<rect width="377" height="606" fill="white"/>
</clipPath>
</defs>
</svg>
