<svg width="20" height="32" viewBox="0 0 20 32" fill="none" xmlns="http://www.w3.org/2000/svg">
<path fill-rule="evenodd" clip-rule="evenodd" d="M14.4429 11.163C14.7986 11.163 15.1482 10.9918 15.363 10.6749C15.7083 10.1644 15.5764 9.47095 15.0696 9.12421L11.4104 6.62561C10.5525 6.06755 9.44751 6.06606 8.57031 6.63899L4.93042 9.12421C4.42358 9.47095 4.29175 10.1644 4.63696 10.6749C4.98218 11.1853 5.67407 11.3177 6.18066 10.9695L9.80005 8.49918C9.92139 8.4203 10.0801 8.41882 10.1792 8.4843L13.8193 10.9695C14.0103 11.1005 14.228 11.163 14.4429 11.163ZM14.4429 17.1156C14.7986 17.1156 15.1482 16.9444 15.363 16.6274C15.7083 16.117 15.5764 15.4235 15.0696 15.0768L11.4104 12.5782C10.5525 12.0201 9.44751 12.0186 8.57031 12.5916L4.93042 15.0768C4.42358 15.4235 4.29175 16.117 4.63696 16.6274C4.98218 17.1379 5.67407 17.2688 6.18066 16.9221L9.80005 14.4518C9.92139 14.3714 10.0801 14.3729 10.1792 14.4369L13.8193 16.9221C14.0103 17.0531 14.228 17.1156 14.4429 17.1156ZM11.446 0.449799L18.8533 5.51247C19.5718 6.00356 20 6.82056 20 7.69856V24.2988C20 25.1783 19.5718 25.9953 18.8533 26.4864L11.446 31.5476C11.0073 31.8497 10.5037 32 10 32C9.49634 32 8.99121 31.8497 8.55103 31.5461L1.14526 26.4864C0.428223 25.9953 0 25.1783 0 24.2988V7.69856C0 6.82056 0.428223 6.00356 1.14526 5.51247L8.55249 0.449799C9.43115 -0.149933 10.5674 -0.149933 11.446 0.449799ZM10 25C11.1045 25 12 24.1046 12 23C12 21.8954 11.1045 21 10 21C8.89551 21 8 21.8954 8 23C8 24.1046 8.89551 25 10 25Z" fill="white"/>
</svg>
